<?xml version="1.0" encoding="UTF-8"?>
<svg id="design" xmlns="http://www.w3.org/2000/svg" viewBox="0 0 595.28 249.88">
  <g>
    <g>
      <path d="M251.03,90.17c0-14.06,10.33-24.39,24.97-24.39s24.97,10.33,24.97,24.39-10.33,24.39-24.97,24.39-24.97-10.33-24.97-24.39ZM295.81,90.17c0-11.34-8.11-19.66-19.8-19.66s-19.8,8.32-19.8,19.66,8.11,19.66,19.8,19.66,19.8-8.32,19.8-19.66Z" fill="#00294d" stroke-width="0"/>
      <path d="M306.92,96.12c0-11.41,7.96-18.87,18.94-18.87s19.16,7.89,19.16,18.8-7.96,18.51-18.37,18.51c-6.74,0-12.27-3.16-14.92-8.54v20.27h-4.81v-30.17ZM340.14,95.9c0-8.18-5.74-14.21-14.21-14.21s-14.21,6.03-14.21,14.21,5.67,14.21,14.21,14.21,14.21-6.03,14.21-14.21Z" fill="#00294d" stroke-width="0"/>
      <path d="M349.17,95.9c0-10.76,7.89-18.65,19.09-18.65s18.94,7.89,18.94,18.65v1.58h-33.08c.65,7.39,6.17,12.63,14.14,12.63,5.6,0,9.9-2.3,12.2-6.39h5.24c-2.73,6.53-9.18,10.83-17.43,10.83-11.19,0-19.09-7.89-19.09-18.65ZM382.18,93.18c-1.15-7.17-6.74-11.48-13.92-11.48s-12.91,4.52-13.99,11.48h27.91Z" fill="#00294d" stroke-width="0"/>
      <path d="M392.79,95.12c0-11.77,7.03-17.87,17.51-17.87s17.51,6.1,17.51,17.87v18.51h-4.81v-18.51c0-8.75-5.02-13.42-12.7-13.42s-12.7,4.66-12.7,13.42v18.51h-4.81v-18.51Z" fill="#00294d" stroke-width="0"/>
    </g>
    <g>
      <path d="M251.03,146.2c0-14.06,10.33-24.39,24.97-24.39,12.27,0,21.52,7.25,24.18,17.94h-9.69c-2.22-5.67-7.53-9.4-14.49-9.4-9.33,0-15.64,6.67-15.64,15.86s6.31,15.93,15.64,15.93c6.96,0,12.27-3.8,14.49-9.47h9.69c-2.65,10.69-11.91,17.94-24.18,17.94-14.64,0-24.97-10.33-24.97-24.39Z" fill="#00294d" stroke-width="0"/>
      <path d="M304.55,151.94c0-10.76,7.89-18.65,19.09-18.65s19.08,7.89,19.08,18.65-7.89,18.65-19.08,18.65-19.09-7.89-19.09-18.65ZM334.04,151.94c0-6.24-4.16-10.69-10.4-10.69s-10.48,4.45-10.48,10.69,4.23,10.69,10.48,10.69,10.4-4.45,10.4-10.69Z" fill="#00294d" stroke-width="0"/>
      <path d="M348.31,149.43c0-11.12,6.46-16.14,14.85-16.14,5.31,0,9.69,2.22,12.27,6.39,2.51-4.16,6.89-6.39,12.27-6.39,8.39,0,14.85,5.02,14.85,16.14v20.23h-8.54v-20.23c0-5.81-3.01-8.18-7.17-8.18s-7.1,2.44-7.1,8.18v20.23h-8.54v-20.23c0-5.74-3.09-8.18-7.17-8.18s-7.17,2.37-7.17,8.18v20.23h-8.54v-20.23Z" fill="#00294d" stroke-width="0"/>
      <path d="M409.58,152.22c0-11.48,7.75-18.94,18.87-18.94s19.16,7.75,19.16,19.01c0,12.13-9.04,18.3-17.65,18.3-5.09,0-9.33-2.15-11.84-6.1v20.3h-8.54v-32.57ZM439,151.94c0-6.24-4.23-10.69-10.47-10.69s-10.4,4.45-10.4,10.69,4.16,10.69,10.4,10.69,10.47-4.45,10.47-10.69Z" fill="#00294d" stroke-width="0"/>
      <path d="M452.31,152.3c0-11.26,7.89-19.01,19.16-19.01s18.87,7.53,18.87,18.94v17.43h-7.82v-6.96c-2.15,5.24-6.96,7.89-12.56,7.89-8.61,0-17.65-6.17-17.65-18.3ZM481.8,151.94c0-6.24-4.16-10.69-10.4-10.69s-10.48,4.45-10.48,10.69,4.23,10.69,10.48,10.69,10.4-4.45,10.4-10.69Z" fill="#00294d" stroke-width="0"/>
      <path d="M496,159.18h8.61c.07,2.37,2.15,3.95,6.31,3.95,4.38,0,6.24-1.79,6.24-3.95,0-2.73-3.16-3.09-6.96-3.59-5.45-.72-13.49-1.65-13.49-10.33,0-7.25,5.53-11.98,14.06-11.98s13.99,4.88,14.21,11.12h-8.47c-.22-2.15-2.22-3.66-5.6-3.66-3.73,0-5.6,1.79-5.6,3.87,0,2.73,3.23,3.16,7.03,3.66,4.73.65,13.42,1.58,13.42,10.4,0,7.17-5.81,11.91-14.85,11.91s-14.71-4.81-14.92-11.41Z" fill="#00294d" stroke-width="0"/>
      <path d="M530.08,159.18h8.61c.07,2.37,2.15,3.95,6.31,3.95,4.38,0,6.24-1.79,6.24-3.95,0-2.73-3.16-3.09-6.96-3.59-5.45-.72-13.49-1.65-13.49-10.33,0-7.25,5.53-11.98,14.06-11.98s13.99,4.88,14.21,11.12h-8.47c-.22-2.15-2.22-3.66-5.6-3.66-3.73,0-5.6,1.79-5.6,3.87,0,2.73,3.23,3.16,7.03,3.66,4.73.65,13.42,1.58,13.42,10.4,0,7.17-5.81,11.91-14.85,11.91s-14.71-4.81-14.92-11.41Z" fill="#00294d" stroke-width="0"/>
    </g>
  </g>
  <path d="M174.87,75.23l-60.57,35.34c-1.03.57-1.89,1.44-2.42,2.43l-26.85,51.99c-.41.81.45,1.68,1.26,1.26l52.08-26.73c1.05-.56,1.92-1.41,2.52-2.48l35.26-60.53c.48-.83-.45-1.76-1.28-1.28ZM126.34,133.28c-4.54,0-8.22-3.68-8.22-8.22s3.68-8.21,8.22-8.21,8.21,3.68,8.21,8.21-3.68,8.22-8.21,8.22Z" fill="#00294d" stroke-width="0"/>
  <path d="M76.48,120.07c1.1,0,2.04-.79,2.2-1.88,3.24-22.31,22.02-39.96,44.97-41.21.18,0,.37-.02.55-.03,1.19-.05,2.14-1.02,2.14-2.22,0-7.33,0-31.16,0-38.62,0-1.24-1.02-2.25-2.26-2.22,0,0-.02,0-.03,0-23.47.58-45.6,10.15-62.31,26.95-15.36,15.46-24.57,35.46-26.29,56.84-.1,1.29.93,2.38,2.23,2.38h38.81Z" fill="#00c997" stroke-width="0"/>
  <path d="M121.34,174.93c0-1.1-.8-2.05-1.89-2.2-1.74-.24-3.45-.57-5.15-1.01-3.57-.92-7.22-1.39-10.84-1.39-6.49,0-12.62,1.46-18.23,4.34l-8.16,4.19c-.51.26-1.04.39-1.59.39-1.19,0-2.33-.65-2.96-1.69-.64-1.04-.67-2.27-.11-3.38l4.24-8.2c4.49-8.7,5.56-18.99,3.01-28.98-.42-1.66-.75-3.34-1-5.04-.15-1.09-1.1-1.88-2.2-1.88h-38.81c-1.31,0-2.33,1.13-2.22,2.43,1.7,21.25,10.68,41.02,25.81,56.44,15.56,15.85,35.83,25.3,57.72,27.04,1.29.1,2.38-.94,2.38-2.23v-38.82Z" fill="#ffae00" stroke-width="0"/>
  <path d="M176.68,125.07c-1.2,0-2.18.95-2.22,2.15,0,.17-.01.34-.02.51-1.24,22.97-18.89,41.75-41.21,44.99-1.08.16-1.88,1.1-1.88,2.2v38.8c0,1.29,1.09,2.33,2.38,2.23,21.38-1.72,41.39-10.93,56.85-26.3,16.81-16.71,26.38-38.85,26.95-62.32,0,0,0-.02,0-.02.03-1.24-.99-2.24-2.23-2.24h-38.61Z" fill="#ff704d" stroke-width="0"/>
</svg>