<?xml version="1.0" encoding="UTF-8"?>
<svg id="design" xmlns="http://www.w3.org/2000/svg" viewBox="0 0 288.4 288.89">
  <path d="M192.36,94.74l-60.57,35.34c-1.03.57-1.89,1.44-2.42,2.43l-26.85,51.99c-.41.81.45,1.68,1.26,1.26l52.08-26.73c1.05-.56,1.92-1.41,2.52-2.48l35.26-60.53c.48-.83-.45-1.76-1.28-1.28ZM143.83,152.79c-4.54,0-8.22-3.68-8.22-8.22s3.68-8.21,8.22-8.21,8.21,3.68,8.21,8.21-3.68,8.22-8.21,8.22Z" fill="#00294d" stroke-width="0"/>
  <path d="M93.97,139.57c1.1,0,2.04-.79,2.2-1.88,3.24-22.31,22.02-39.96,44.97-41.21.18,0,.37-.02.55-.03,1.19-.05,2.14-1.02,2.14-2.22,0-7.33,0-31.16,0-38.62,0-1.24-1.02-2.25-2.26-2.22,0,0-.02,0-.03,0-23.47.58-45.6,10.15-62.31,26.95-15.36,15.46-24.57,35.46-26.29,56.84-.1,1.29.93,2.38,2.23,2.38h38.81Z" fill="#00c997" stroke-width="0"/>
  <path d="M138.83,194.43c0-1.1-.8-2.05-1.89-2.2-1.74-.24-3.45-.57-5.15-1.01-3.57-.92-7.22-1.39-10.84-1.39-6.49,0-12.62,1.46-18.23,4.34l-8.16,4.19c-.51.26-1.04.39-1.59.39-1.19,0-2.33-.65-2.96-1.69-.64-1.04-.67-2.27-.11-3.38l4.24-8.2c4.49-8.7,5.56-18.99,3.01-28.98-.42-1.66-.75-3.34-1-5.04-.15-1.09-1.1-1.88-2.2-1.88h-38.81c-1.31,0-2.33,1.13-2.22,2.43,1.7,21.25,10.68,41.02,25.81,56.44,15.56,15.85,35.83,25.3,57.72,27.04,1.29.1,2.38-.94,2.38-2.23v-38.82Z" fill="#ffae00" stroke-width="0"/>
  <path d="M194.17,144.57c-1.2,0-2.18.95-2.22,2.15,0,.17-.01.34-.02.51-1.24,22.97-18.89,41.75-41.21,44.99-1.08.16-1.88,1.1-1.88,2.2v38.8c0,1.29,1.09,2.33,2.38,2.23,21.38-1.72,41.39-10.93,56.85-26.3,16.81-16.71,26.38-38.85,26.95-62.32,0,0,0-.02,0-.02.03-1.24-.99-2.24-2.23-2.24h-38.61Z" fill="#ff704d" stroke-width="0"/>
</svg>